<?xml version="1.0" standalone="no"?>
<!DOCTYPE svg PUBLIC "-//W3C//DTD SVG 20010904//EN"
 "http://www.w3.org/TR/2001/REC-SVG-20010904/DTD/svg10.dtd">
<svg version="1.0" xmlns="http://www.w3.org/2000/svg"
 width="350.000000pt" height="350.000000pt" viewBox="0 0 350.000000 350.000000"
 preserveAspectRatio="xMidYMid meet">

<g transform="translate(0.000000,350.000000) scale(0.100000,-0.100000)"
fill="#000000" stroke="none">
<path d="M1670 2914 c-312 -32 -554 -145 -758 -354 -438 -447 -435 -1173 7
-1620 164 -166 367 -275 606 -326 108 -23 332 -23 440 0 424 91 754 383 884
785 40 122 55 218 55 356 0 66 -6 154 -13 195 -73 414 -370 764 -766 900 -137
48 -337 76 -455 64z m330 -177 c187 -49 326 -130 465 -271 101 -102 169 -204
220 -328 100 -247 98 -534 -5 -781 -99 -237 -323 -455 -561 -547 -237 -91
-511 -91 -748 0 -231 89 -448 297 -552 527 -84 187 -110 416 -69 613 43 211
128 369 279 521 149 148 307 234 511 278 132 29 324 24 460 -12z"/>
<path d="M1650 2094 c-120 -32 -213 -124 -251 -248 -53 -168 25 -344 187 -427
63 -31 75 -34 158 -34 79 0 98 4 147 28 84 41 143 98 181 175 30 61 33 74 32
157 0 71 -5 101 -23 140 -48 106 -136 181 -246 210 -72 18 -113 18 -185 -1z"/>
</g>
</svg>
